# xmcd CD database file
#
# Track frame offsets:
#	150
#	14932
#	35395
#	52195
#	68855
#	85585
#	119320
#	137160
#	153830
#	162015
#	173772
#	202157
#	214757
#	233740
#	246992
#	272865
#	287515
#	304462
#	318067
#	333667
#
# Disc length: 4655 seconds
#
# Revision: 11
# Processed by: cddbd v1.5.2PL0 Copyright (c) Steve Scherf et al.
# Submitted via: CDex 1.70beta3
#
DISCID=28122d14
DTITLE=The Rolling Stones - Forty Licks [CD1]
DYEAR=2002
DGENRE=Rock
TTITLE0=Street Fighting Man
TTITLE1=Gimme Shelter
TTITLE2=(I Can't Get No) Satisfaction
TTITLE3=The Last Time
TTITLE4=Jumpin' Jack Flash
TTITLE5=You Can't Always Get What You Want
TTITLE6=19th Nervous Breakdown
TTITLE7=Under My Thumb
TTITLE8=Not Fade Away
TTITLE9=Have You Seen Your Mother, Baby, Standing in The Shadow?
TTITLE10=Sympathy for The Devil
TTITLE11=Mother's Little Helper
TTITLE12=She's A Rainbow
TTITLE13=Get Off of My Cloud
TTITLE14=Wild Horses
TTITLE15=Ruby Tuesday
TTITLE16=Paint It, Black
TTITLE17=Honky Tonk Women
TTITLE18=It's All Over Now
TTITLE19=Let's Spend The Night Together
EXTD=YEAR: 2002
EXTT0=
EXTT1=
EXTT2=
EXTT3=
EXTT4=
EXTT5=
EXTT6=
EXTT7=
EXTT8=
EXTT9=
EXTT10=
EXTT11=
EXTT12=
EXTT13=
EXTT14=
EXTT15=
EXTT16=
EXTT17=
EXTT18=
EXTT19=
PLAYORDER=
